<svg xmlns="http://www.w3.org/2000/svg" xmlns:xlink="http://www.w3.org/1999/xlink" width="500" zoomAndPan="magnify" viewBox="0 0 375 374.999991" height="500" preserveAspectRatio="xMidYMid meet" version="1.0"><path fill="#d6aecd" d="M 74.761719 307.503906 L 79.007812 311.703125 L 79.429688 312.128906 C 92.640625 325.816406 92.5 347.859375 79.007812 361.359375 C 65.511719 374.855469 43.476562 375 29.796875 361.78125 L 29.371094 361.359375 L 25.125 357.15625 L 13.566406 345.546875 C -0.0703125 331.90625 -0.0703125 309.582031 13.566406 295.894531 C 27.199219 282.253906 49.566406 282.253906 63.199219 295.894531 Z M 308.875 115.402344 L 317.699219 106.578125 L 360.964844 63.292969 C 374.597656 49.652344 374.597656 27.328125 360.964844 13.640625 C 347.28125 0 324.964844 0 311.328125 13.640625 L 268.0625 56.921875 L 263.34375 61.640625 L 259.238281 65.75 L 234.421875 90.574219 C 220.789062 104.214844 220.789062 126.542969 234.421875 140.230469 L 259.238281 165.054688 L 263.675781 169.445312 L 311.660156 217.449219 C 325.292969 231.089844 347.613281 231.089844 361.292969 217.449219 C 374.929688 203.808594 374.929688 181.433594 361.292969 167.792969 L 313.308594 119.792969 Z M 15.546875 13.972656 L 15.546875 13.921875 C 29.183594 0.28125 51.546875 0.28125 65.183594 13.921875 L 360.632812 309.535156 C 374.316406 323.175781 374.316406 345.546875 360.632812 359.1875 C 347 372.828125 324.679688 372.828125 311 359.1875 L 15.546875 63.578125 C 1.910156 49.9375 1.910156 27.613281 15.546875 13.972656 Z M 15.121094 155.476562 C 28.757812 141.835938 51.074219 141.835938 64.757812 155.476562 L 98.398438 189.128906 L 171.199219 261.957031 L 219.183594 309.957031 C 232.820312 323.597656 232.820312 345.972656 219.183594 359.613281 C 205.5 373.253906 183.183594 373.253906 169.546875 359.613281 L 121.5625 311.609375 L 48.761719 238.78125 L 15.121094 205.128906 C 1.488281 191.488281 1.488281 169.117188 15.121094 155.476562 Z M 15.121094 155.476562 " fill-opacity="1" fill-rule="evenodd"/></svg>